<svg xmlns="http://www.w3.org/2000/svg" style="" viewBox="0 0 230 85" x="0px" y="0px" version="1.1" xmlns:xml="http://www.w3.org/XML/1998/namespace" xml:space="preserve">
<g id="Content">
	<g id="Generisch_1_">
		<path d="M 159.6 32.4 c -1 0 -1.9 0.4 -2.5 1.1 l 0.2 0.5 l -1.7 1 l -1.4 1.6 l 0.1 -0.4 c -0.5 -0.1 -1 -0.1 -1.5 -0.2 l 0.5 -1.4 l -1.1 -2.7 l -1.6 -2 l -5.5 0.9 l -5.4 -0.9 l -1.6 2 l -1.1 2.7 l 0.5 1.4 c -0.6 0.1 -1.2 0.2 -1.8 0.2 l 0 0.1 l 0 0 l 0.2 1.5 c 0 0 0 0 0 0 l 0.1 0.7 l 0 0 l 0 0.2 l -1.2 0.9 l 0.6 1.5 l 0 0 l 0.4 0.9 l -1.7 5.7 l -0.2 0.6 l 0.1 3.2 l 0.7 0.9 l 0.2 -0.3 l 0.2 -0.6 l -0.1 -3 l 0.1 -0.5 l 1.4 -4.5 l 1.8 4.4 l 0.2 0.5 l 1.1 0.5 l 0.9 1.2 l 4.7 1 l 4.7 -1 l 0.9 -1.2 l 1.1 -0.5 l 1.5 -4 l 0.4 1.6 l 0.6 2.6 v 3.1 l 0.3 0.7 l 1.7 1.8 v 1.1 l -0.8 0.5 H 153 l -1 0.6 l -2 4.1 l -0.1 0.5 v 2.5 v 0.4 l -0.3 0.1 l -1.4 0.3 l -0.2 0.3 v -3 l 0.1 0 l -0.4 -8.3 l -1 0 l 0.2 5.7 c -0.4 -0.2 -0.8 -0.4 -1.2 -0.4 h -0.9 c -0.5 0 -0.9 0.1 -1.2 0.4 l 0.2 -5.7 l -1 0 l -0.3 8.3 l 0.1 0 v 3 l -0.2 -0.2 l -0.1 0 l -1.4 -0.3 l -0.4 -0.1 v -0.4 v -1.9 l -0.1 -0.5 l -2.2 -4.7 l -1 -0.6 h -1.1 v 1.1 h 1.1 l 2.2 4.7 v 1.9 v 1.3 l 1.3 0.2 l 1.4 0.3 l 0.1 0 l 0.2 6.6 c 0 1.1 1.3 2.1 3 2.1 s 3 -0.9 3 -2.1 l 0.2 -6.6 l 1.4 -0.3 l 1.2 -0.2 v -1.3 V 61 l 2 -4.1 h 2.8 l 1.7 -0.9 v -2.2 l -2 -2.2 v -3.2 l -0.7 -2.7 l -0.8 -3.1 l 0.6 -1.5 l 0.6 -1.5 l -1.4 -1 l 0.1 -0.8 c 2.6 0.4 4.5 0.8 4.5 0.8 l 0.2 -1 c 0 0 -1.7 -0.4 -4.1 -0.8 l 1.2 -1.3 l 1.6 -0.9 l 0.2 0.4 l 1.5 0.6 l 1.6 -0.7 l 1.3 -1.5 C 161.5 32.7 160.6 32.4 159.6 32.4 Z M 154 40 l -0.9 2.2 l 0 0.2 l -2 5.2 l 0 0.1 l -0.9 0.4 l -0.8 1.1 l -4.1 0.9 l -4.1 -0.9 l -0.8 -1.1 l -1 -0.4 l -2.5 -5.9 l 0 -0.2 l -0.6 -1.6 l 1.1 -0.8 l -0.3 -2 c 0.3 0 0.3 -0.1 0.6 -0.1 l 0.9 -1.5 l -0.4 -1 l 0.8 -2.1 l 1.1 -1.3 l 4.8 0.8 h 0.4 l 4.8 -0.8 l 1.1 1.3 l 0.8 2.1 l -0.4 1 l 0.9 1.5 l 0.3 0 c 0.2 0 -0.1 2 -0.1 2 L 154 40 Z" />
		<polygon points="141.9,46.5 140,44.8 139.7,43.3 139.1,41.9 139.3,40.7 141.2,41.5 143.4,43.7 143.8,46.8" />
		<polygon points="150.6,43.3 150.3,44.8 148.4,46.5 146.4,46.8 146.8,43.7 149.1,41.5 150.9,40.7 151.2,41.9" />
		<path d="M 94.4 55.8 h -1.6 l -1 0.6 l -2 4.1 L 89.7 61 v 2.5 v 0.4 L 89.3 64 l -1.4 0.3 l -0.2 0.3 v -3 l 0.1 0 l -0.3 -8.3 l -1 0 l 0.2 5.7 c -0.4 -0.2 -0.8 -0.4 -1.2 -0.4 h -0.9 c -0.5 0 -0.9 0.1 -1.2 0.4 l 0.2 -5.7 l -1 0 l -0.3 8.3 l 0.1 0 v 3 l -0.2 -0.2 l -0.1 0 L 80.4 64 l -0.4 -0.1 v -0.4 v -1.9 L 80 61.1 l -2.2 -4.7 l -1 -0.6 h -2.6 l -0.6 -0.4 v -1.2 l 1.2 -1.9 l 0.2 -0.6 l -0.1 -3 l 0.1 -0.5 l 1.4 -4.5 l 1.8 4.4 l 0.2 0.5 l 1.1 0.5 l 0.9 1.2 l 4.7 1 l 4.7 -1 l 0.9 -1.2 l 1.1 -0.5 l 1.5 -4 l 0.4 1.6 l 0.6 2.6 v 3.1 l 0.3 0.7 l 0.6 0.7 l 0.6 -0.9 l -0.4 -0.5 v -3.2 l -0.7 -2.7 l -0.8 -3.1 l 0.5 -1.4 l 0.6 -1.6 l -1.4 -1 l 0.1 -0.8 c 0 0 0 0 0 0 l 0.2 -1.2 l 0 0 l 0.1 -0.4 c -0.5 -0.1 -1 -0.1 -1.5 -0.2 l 0.5 -1.4 L 92 32 l -1.6 -2 l -5.5 0.9 L 79.5 30 l -1.6 2 l -1.1 2.7 l 0.5 1.4 c -0.6 0.1 -1.2 0.2 -1.8 0.2 l 0 0.1 L 74.4 35 l -1.7 -1 l 0.3 -0.6 c -0.6 -0.7 -1.5 -1.1 -2.5 -1.1 c -1 0 -1.9 0.4 -2.6 1.1 l 1.3 1.5 l 1.6 0.6 l 1.5 -0.6 l 0.2 -0.4 l 1.6 0.9 l 1.2 1.3 c -2.5 0.4 -4.2 0.8 -4.2 0.8 l 0.2 1 c 0 0 1.9 -0.4 4.5 -0.8 l 0.1 0.9 l -1.2 0.9 l 0.6 1.5 l 0 0 l 0.4 0.9 l -1.7 5.7 l -0.2 0.6 l 0.1 3.2 l -1.4 2.2 V 56 l 1.4 0.9 h 2.9 l 2.2 4.7 v 1.9 v 1.3 l 1.3 0.2 l 1.4 0.3 l 0.1 0 l 0.2 6.6 c 0 1.1 1.3 2.1 3 2.1 s 3 -0.9 3 -2.1 l 0.2 -6.6 l 1.4 -0.3 l 1.2 -0.2 v -1.3 V 61 l 2 -4.1 h 1.6 V 55.8 Z M 76.8 37.2 c 0.3 0 0.3 -0.1 0.6 -0.1 l 0.9 -1.5 l -0.4 -1 l 0.8 -2.1 l 1.1 -1.3 l 4.8 0.8 h 0.4 l 4.8 -0.8 l 1.1 1.3 l 0.8 2.1 l -0.4 1 l 0.9 1.5 l 0.3 0 c 0.2 0 -0.1 2 -0.1 2 l 1.2 0.9 l -0.9 2.2 l 0 0.2 l -2 5.2 l 0 0.1 l -0.9 0.4 l -0.8 1.1 l -4.1 0.9 L 81 49.2 l -0.8 -1.1 l -1 -0.4 l -2.5 -5.9 l 0 -0.2 L 76.1 40 l 1.1 -0.8 L 76.8 37.2 Z" />
		<polygon points="81.6,46.5 79.7,44.8 79.4,43.3 78.8,41.9 79.1,40.7 80.9,41.5 83.2,43.7 83.6,46.8" />
		<polygon points="90.3,43.3 90,44.8 88.1,46.5 86.2,46.8 86.6,43.7 88.8,41.5 90.7,40.7 90.9,41.9" />
		<path d="M 131.3 51.5 h -0.5 v -4.8 l -1.5 -6.3 l -2.2 5.7 l -0.2 0.6 l -0.6 0.3 l -1.3 0.6 l -1.3 1.7 l -0.4 0.5 l -0.6 0.1 l -7.3 1.6 l -0.3 0.1 l -0.3 -0.1 l -7.3 -1.6 l -0.6 -0.1 l -0.4 -0.5 l -1.3 -1.6 l -1.4 -0.6 l -0.6 -0.3 l -0.2 -0.6 l -2.7 -6.3 l -2.1 6.9 v 4.8 h 0.2 l -2.1 3.2 V 58 l 2.1 1.4 h 4.3 l 3.4 7 v 2.9 v 2 l 1.9 0.4 l 2.1 0.4 l 0.1 0 l 0.3 9.8 c 0 1.7 2 3.1 4.4 3.1 s 4.4 -1.4 4.4 -3.1 L 120 72 l 2.2 -0.4 l 1.8 -0.4 v -2 v -3.7 l 3.1 -6.2 h 4.3 l 2.5 -1.4 v -3.3 L 131.3 51.5 Z M 111.5 54.4 c -1 0.8 -2.6 2.2 -2.9 3.8 c 0.7 -0.4 1.7 -0.7 2.5 -1 c -0.1 0.3 -0.2 0.5 -0.2 0.8 l -0.4 11.7 l -2 -0.3 V 58.4 h -1 v -6.8 v 0 l 3.9 0.8 V 54.4 Z M 123 51.6 v 6.8 h -1 v 10.9 l -2 0.3 l -0.4 -11.7 c 0 -0.3 -0.1 -0.5 -0.2 -0.8 c 0.8 0.3 1.8 0.6 2.5 1 c -0.3 -1.6 -1.9 -3 -2.9 -3.8 v -2.1 L 123 51.6 L 123 51.6 Z" />
		<path d="M 140.8 24.2 L 140.8 24.2 c -0.9 -1.1 -2.3 -1.6 -3.9 -1.6 s -3.8 1.6 -3.8 1.6 l 0.4 0.9 l -2.6 1.5 l -2.1 2.3 l 0.1 -0.5 c -0.8 -0.1 -1.5 -0.2 -2.3 -0.3 l 0.8 -2.1 l -1.6 -4 l -2.4 -2.9 l -8.2 1.4 l -8.1 -1.4 l -2.4 2.9 l -1.6 4 l 0.8 2 c -0.9 0.1 -1.7 0.2 -2.6 0.4 l 0 0.2 l -1.8 -1.9 L 96.9 25 l 0.4 -0.9 c -0.9 -1.1 -2.2 -1.6 -3.8 -1.6 c -1.5 0 -2.9 0.5 -3.9 1.6 l 0 0 l 0 0 l 0 0 l 0 0 l 1.9 2.3 l 2.4 1 l 2.3 -0.9 l 0.4 -0.7 l 2.5 1.3 l 1.8 2 c -3.7 0.6 -6.3 1.1 -6.4 1.1 l 0.3 1.6 c 0.1 0 2.8 -0.6 6.8 -1.2 l 0.1 0.8 c 0.4 -0.1 0.8 -0.1 1.2 -0.2 l -2.9 2.1 l 4.7 12.1 l 1.7 0.8 l 1.5 2 l 7.3 1.6 l 7.3 -1.6 l 1.5 -2 l 1.7 -0.8 l 4.7 -12.1 l -2.8 -2.1 c 0.3 0 0.5 0.1 0.8 0.1 l 0.1 -0.8 c 4 0.6 6.7 1.2 6.8 1.2 l 0.4 -1.6 c -0.1 0 -2.5 -0.6 -6.1 -1.1 l 1.8 -2 l 2.5 -1.3 l 0.4 0.7 l 2.3 0.9 l 2.4 -1 L 140.8 24.2 L 140.8 24.2 L 140.8 24.2 L 140.8 24.2 Z M 109.6 46.8 l -3.3 -2.9 l -0.5 -2.6 l -1 -2.4 l 0.5 -2.2 l 3.2 1.4 l 3.9 3.9 l 0.7 5.3 L 109.6 46.8 Z M 124.7 41.3 l -0.5 2.6 l -3.3 2.9 l -3.4 0.5 l 0.7 -5.3 l 3.9 -3.9 l 3.2 -1.4 l 0.5 2.2 L 124.7 41.3 Z" />
	</g>
</g>
<g id="Product">
</g>
</svg>